<?xml version="1.0" encoding="UTF-8"?>
<!DOCTYPE svg PUBLIC "-//W3C//DTD SVG 1.1//EN" "http://www.w3.org/Graphics/SVG/1.1/DTD/svg11.dtd">
<!-- Creator: CorelDRAW 2020 (64-Bit) -->
<svg xmlns="http://www.w3.org/2000/svg" xml:space="preserve" width="56.3336mm" height="56.334mm" version="1.1" style="shape-rendering:geometricPrecision; text-rendering:geometricPrecision; image-rendering:optimizeQuality; fill-rule:evenodd; clip-rule:evenodd"
viewBox="0 0 1118.56 1118.56"
 xmlns:xlink="http://www.w3.org/1999/xlink"
 xmlns:xodm="http://www.corel.com/coreldraw/odm/2003">
 <defs>
  <style type="text/css">
   <![CDATA[
    .fil1 {fill:#FEFEFE}
    .fil0 {fill:#ED3237}
   ]]>
  </style>
 </defs>
 <g id="Plan_x0020_1">
  <metadata id="CorelCorpID_0Corel-Layer"/>
  <path class="fil0" d="M376.36 0l365.83 0c207,0 376.36,169.35 376.36,376.37l0 365.82c0,207.02 -169.36,376.37 -376.36,376.37l-365.83 0c-207,0 -376.36,-169.35 -376.36,-376.37l0 -365.82c0,-207.02 169.36,-376.37 376.36,-376.37z"/>
  <path class="fil1" d="M294.47 657.84c-8.43,-14.86 -1.99,-26.05 -22.35,-32.96 -45.03,-15.28 -69.16,31.27 -38.72,43.65 15.79,6.42 44.66,-2.67 53.19,5.62 6.16,6.64 0.63,20.2 0.08,31.96l-0.37 116.58c0.03,12.17 0.85,22.51 11.64,26.83 6.55,2.62 32.17,2.67 39.3,0.89 21.72,-5.42 12.25,-41.21 14.55,-64.1l260.41 -0.73c3.98,24.62 -7.53,58.57 14.11,64.54 6.6,1.82 30.42,1.93 37.08,0.3 11.74,-2.87 14.81,-11.24 15.06,-25.19l-2.34 -152.87c14.15,-4.52 36.26,1.79 52.14,-2.87 14.39,-4.23 22.09,-22.73 11,-36.15 -7.13,-8.64 -32.19,-13.37 -45.77,-8.79 -20.56,6.92 -19.77,27.17 -24.66,33.18 -6.55,-8.58 -37.03,-92.1 -46.48,-112.35 -11.14,-23.85 -29.58,-20.51 -59.75,-20.5l-159.36 0c-67.96,-0.03 -53.91,2.72 -95.62,105.99 -3.57,8.84 -6.71,21.82 -13.15,26.96zm456.46 163.35l-18.86 0.45 0 29.77 178.09 -0.08 -0.05 -29.79 -18.5 -0.33 -0.37 -282.48c-49.74,-0.04 -33.44,0.69 -37.85,-6.99 -4.21,-7.33 3.82,-3.83 -4.97,-6.43l-58.18 0.03 -2.13 13.5 -17.93 -0.1 -16.4 -23.38c-2.29,14.59 -13.5,57.41 -9.83,67.64 6.23,17.37 7.88,5.65 7.66,32.07 -0.48,56.75 4.3,162.76 -0.69,206.12zm-379.93 -272.12c-15.71,6.53 -14.87,16.13 -20.79,33.36 -4.43,12.89 -9.02,25.55 -13.87,39.11 -17.02,47.63 3,46.42 46.66,46.4 71.65,-0.03 143.43,-0.42 215.06,0.05 57.11,0.37 35.05,-31.68 12.74,-95.93 -5.76,-16.6 -7.04,-24.41 -27.82,-25.16 -26.14,-0.94 -201.06,-2.36 -211.98,2.18zm186.55 169.79l1.26 28.39c23.86,2.87 44.76,1.43 69.56,1.36 17.36,0 15.38,-2.24 15.57,-19.51 0.33,-29.22 9.95,-24.02 -71.22,-24.02 -13.11,0 -15.15,0.9 -15.17,13.79zm-237.27 0l1.52 27.94c29.18,3.59 41.37,1.93 71.32,1.81 18.03,-0.07 15.29,-16.97 12.15,-41.52 -15.11,-4.51 -50.63,-2 -67.8,-2.02 -13.44,0.16 -17.19,-0.08 -17.19,13.79zm275.69 -383.46c7.14,-53.42 22.02,-63.27 -4.01,-88.24 -8.77,55.49 -20.53,61.85 4.01,88.24zm-23.16 -37.93c1.56,-14.92 5.82,-33.29 8.62,-48.01 2.61,-13.72 5.33,-20.45 -7.9,-35.26l-3.17 -3.15c-0.41,-0.42 -1.12,-1.08 -1.71,-1.6 -8.51,55.93 -20.38,60.48 4.16,88.01zm46.39 75.77c13.26,-73.8 16.21,-55.17 -2.48,-88.27 -3.87,10.69 -15.23,59.56 -10.99,69.34l13.47 18.92zm67.09 115.83c4.47,-6.81 8.47,-35.83 10.48,-45.91 5.59,-28.16 -0.52,-23.72 -9.72,-43.72 -4.69,6.78 -8.77,35.98 -10.82,46.14 -5.47,27.21 0.92,24.48 10.06,43.5zm48.36 76.6c2.22,-21.5 13.68,-59.19 9.78,-69.11 -0.7,-1.78 -3.8,-7.16 -5.44,-9.51l-6.78 -7.81c-0.41,-0.41 -1.12,-1.08 -1.71,-1.59 -3.37,21.41 -13.66,57.77 -8.75,69.31l12.9 18.71zm-187.41 -306.42c0.38,-0.59 0.85,-2.24 0.99,-1.87 0.14,0.37 0.76,-1.43 0.94,-1.89l8.79 -42.12c4.96,-25.24 0.51,-26.42 -10.61,-43.06 -6.26,10.96 -7.15,32.01 -9.84,45.51 -6.12,30.69 1.12,21.62 9.74,43.43zm95.32 151.79c3.07,-21.51 13.71,-58.01 8.78,-69.19l-8.95 -14.23c-1.94,-2.55 -2.34,-2.9 -4.03,-4.62 -2.49,20.45 -13.51,59.44 -9.64,69.1l13.83 18.94zm21.49 39.12c4.95,-9.18 7.2,-33.31 9.61,-45.34 6.22,-31.06 -0.66,-20.97 -9.53,-43.7 -0.41,0.62 -0.9,0.85 -1.05,1.95 -0.15,1.08 -0.79,1.46 -0.99,1.96l-8.89 42.22c-4.09,21.12 -0.13,30.24 10.85,42.92zm45.02 77.24l10.78 -45.94c4.45,-21.5 0.05,-29.74 -10.59,-43.05 -6.35,10.72 -7.18,31.97 -9.9,45.5 -6.15,30.63 0.82,20.94 9.7,43.49zm-184.74 -306.36l3.85 -9.8c0.94,-3.72 1.42,-8.33 2.19,-12.75 1.42,-8.08 3.08,-16.05 4.56,-23.43 5.44,-27.23 -0.56,-24.62 -9.73,-43.71 -0.42,0.59 -0.88,0.84 -1.02,1.92l-5.22 20.8c-10.83,61.52 -8.97,34.29 5.38,66.98zm-22.12 -39.01l12.28 -59.96c-51.81,-6.17 -27.5,41.99 -12.28,59.96zm311.88 417.92c-6.16,2.66 -6.63,-1.9 -10.44,8.69 -6.64,18.47 11.48,32.86 26.83,24.12 18.7,-10.65 7.68,-43.19 -16.4,-32.8z"/>
 </g>
</svg>
