<?xml version="1.0" encoding="UTF-8"?>
<!DOCTYPE svg PUBLIC "-//W3C//DTD SVG 1.1//EN" "http://www.w3.org/Graphics/SVG/1.1/DTD/svg11.dtd">
<!-- Creator: CorelDRAW 2020 (64-Bit) -->
<svg xmlns="http://www.w3.org/2000/svg" xml:space="preserve" width="159.343mm" height="457.369mm" version="1.1" style="shape-rendering:geometricPrecision; text-rendering:geometricPrecision; image-rendering:optimizeQuality; fill-rule:evenodd; clip-rule:evenodd"
viewBox="0 0 2607 7483"
 xmlns:xlink="http://www.w3.org/1999/xlink"
 xmlns:xodm="http://www.corel.com/coreldraw/odm/2003">
 <defs>
  <style type="text/css">
   <![CDATA[
    .fil1 {fill:#1F3F5C}
    .fil0 {fill:#334365}
   ]]>
  </style>
 </defs>
 <g id="Plan_x0020_1">
  <metadata id="CorelCorpID_0Corel-Layer"/>
  <rect class="fil0" width="2607" height="7483"/>
  <path class="fil1" d="M1233.89 2.6c0,680.86 -551.95,1232.8 -1232.81,1232.8l0 209.45c796.55,0 1442.26,-645.72 1442.26,-1442.25l-209.45 0z"/>
  <path class="fil1" d="M744.09 2.6c0,410.35 -332.65,743 -743,743l0 126.24c480.07,0 869.24,-389.17 869.24,-869.24l-126.24 0z"/>
  <path class="fil1" d="M1059.16 2605.45c49.45,0 89.55,40.09 89.55,89.55 0,49.46 -40.09,89.55 -89.55,89.55 -49.45,0 -89.55,-40.09 -89.55,-89.55 0,-49.45 40.1,-89.55 89.55,-89.55zm339.79 0c49.45,0 89.55,40.09 89.55,89.55 0,49.46 -40.1,89.55 -89.55,89.55 -49.45,0 -89.55,-40.09 -89.55,-89.55 0,-49.45 40.1,-89.55 89.55,-89.55zm339.79 0c49.45,0 89.55,40.09 89.55,89.55 0,49.46 -40.1,89.55 -89.55,89.55 -49.45,0 -89.53,-40.09 -89.53,-89.55 0,-49.45 40.09,-89.55 89.53,-89.55zm339.79 0c49.46,0 89.55,40.09 89.55,89.55 0,49.46 -40.09,89.55 -89.55,89.55 -49.45,0 -89.54,-40.09 -89.54,-89.55 0,-49.45 40.09,-89.55 89.54,-89.55zm339.8 0c49.45,0 89.54,40.09 89.54,89.55 0,49.46 -40.09,89.55 -89.54,89.55 -49.46,0 -89.55,-40.09 -89.55,-89.55 0,-49.45 40.09,-89.55 89.55,-89.55zm-1359.17 339.79c49.45,0 89.55,40.09 89.55,89.55 0,49.45 -40.09,89.55 -89.55,89.55 -49.45,0 -89.55,-40.09 -89.55,-89.55 0,-49.46 40.1,-89.55 89.55,-89.55zm339.79 0c49.45,0 89.55,40.09 89.55,89.55 0,49.45 -40.1,89.55 -89.55,89.55 -49.45,0 -89.55,-40.09 -89.55,-89.55 0,-49.46 40.1,-89.55 89.55,-89.55zm339.79 0c49.45,0 89.55,40.09 89.55,89.55 0,49.45 -40.1,89.55 -89.55,89.55 -49.45,0 -89.53,-40.09 -89.53,-89.55 0,-49.46 40.09,-89.55 89.53,-89.55zm339.79 0c49.46,0 89.55,40.09 89.55,89.55 0,49.45 -40.09,89.55 -89.55,89.55 -49.45,0 -89.54,-40.09 -89.54,-89.55 0,-49.46 40.09,-89.55 89.54,-89.55zm339.8 0c49.45,0 89.54,40.09 89.54,89.55 0,49.45 -40.09,89.55 -89.54,89.55 -49.46,0 -89.55,-40.09 -89.55,-89.55 0,-49.46 40.09,-89.55 89.55,-89.55zm-1359.17 339.8c49.45,0 89.55,40.09 89.55,89.54 0,49.45 -40.09,89.54 -89.55,89.54 -49.45,0 -89.55,-40.09 -89.55,-89.54 0,-49.45 40.1,-89.54 89.55,-89.54zm339.79 0c49.45,0 89.55,40.09 89.55,89.54 0,49.45 -40.1,89.54 -89.55,89.54 -49.45,0 -89.55,-40.09 -89.55,-89.54 0,-49.45 40.1,-89.54 89.55,-89.54zm339.79 0c49.45,0 89.55,40.09 89.55,89.54 0,49.45 -40.1,89.54 -89.55,89.54 -49.45,0 -89.53,-40.09 -89.53,-89.54 0,-49.45 40.09,-89.54 89.53,-89.54zm339.79 0c49.46,0 89.55,40.09 89.55,89.54 0,49.45 -40.09,89.54 -89.55,89.54 -49.45,0 -89.54,-40.09 -89.54,-89.54 0,-49.45 40.09,-89.54 89.54,-89.54zm339.8 0c49.45,0 89.54,40.09 89.54,89.54 0,49.45 -40.09,89.54 -89.54,89.54 -49.46,0 -89.55,-40.09 -89.55,-89.54 0,-49.45 40.09,-89.54 89.55,-89.54zm-1359.17 339.79c49.45,0 89.55,40.09 89.55,89.55 0,49.46 -40.09,89.55 -89.55,89.55 -49.45,0 -89.55,-40.09 -89.55,-89.55 0,-49.45 40.1,-89.55 89.55,-89.55zm339.79 0c49.45,0 89.55,40.09 89.55,89.55 0,49.46 -40.1,89.55 -89.55,89.55 -49.45,0 -89.55,-40.09 -89.55,-89.55 0,-49.45 40.1,-89.55 89.55,-89.55zm339.79 0c49.45,0 89.55,40.09 89.55,89.55 0,49.46 -40.1,89.55 -89.55,89.55 -49.45,0 -89.53,-40.09 -89.53,-89.55 0,-49.45 40.09,-89.55 89.53,-89.55zm339.79 0c49.46,0 89.55,40.09 89.55,89.55 0,49.46 -40.09,89.55 -89.55,89.55 -49.45,0 -89.54,-40.09 -89.54,-89.55 0,-49.45 40.09,-89.55 89.54,-89.55zm339.8 0c49.45,0 89.54,40.09 89.54,89.55 0,49.46 -40.09,89.55 -89.54,89.55 -49.46,0 -89.55,-40.09 -89.55,-89.55 0,-49.45 40.09,-89.55 89.55,-89.55zm-1359.17 339.79c49.45,0 89.55,40.09 89.55,89.55 0,49.45 -40.09,89.55 -89.55,89.55 -49.45,0 -89.55,-40.09 -89.55,-89.55 0,-49.46 40.1,-89.55 89.55,-89.55zm339.79 0c49.45,0 89.55,40.09 89.55,89.55 0,49.45 -40.1,89.55 -89.55,89.55 -49.45,0 -89.55,-40.09 -89.55,-89.55 0,-49.46 40.1,-89.55 89.55,-89.55zm339.79 0c49.45,0 89.55,40.09 89.55,89.55 0,49.45 -40.1,89.55 -89.55,89.55 -49.45,0 -89.53,-40.09 -89.53,-89.55 0,-49.46 40.09,-89.55 89.53,-89.55zm339.79 0c49.46,0 89.55,40.09 89.55,89.55 0,49.45 -40.09,89.55 -89.55,89.55 -49.45,0 -89.54,-40.09 -89.54,-89.55 0,-49.46 40.09,-89.55 89.54,-89.55zm339.8 0c49.45,0 89.54,40.09 89.54,89.55 0,49.45 -40.09,89.55 -89.54,89.55 -49.46,0 -89.55,-40.09 -89.55,-89.55 0,-49.46 40.09,-89.55 89.55,-89.55z"/>
  <path class="fil1" d="M1233.89 7466.72c0,-680.86 -551.95,-1232.8 -1232.81,-1232.8l0 -209.45c796.55,0 1442.26,645.72 1442.26,1442.25l-209.45 0z"/>
  <path class="fil1" d="M744.09 7466.72c0,-410.35 -332.65,-743 -743,-743l0 -126.24c480.07,0 869.24,389.17 869.24,869.24l-126.24 0z"/>
  <path class="fil1" d="M1359.39 5482.24c27.6,0 49.98,-22.38 49.98,-49.99 0,-27.61 -22.38,-49.99 -49.98,-49.99 -27.61,0 -49.99,22.38 -49.99,49.99 0,27.61 22.38,49.99 49.99,49.99zm189.68 0c27.6,0 49.99,-22.38 49.99,-49.99 0,-27.61 -22.38,-49.99 -49.99,-49.99 -27.61,0 -49.99,22.38 -49.99,49.99 0,27.61 22.38,49.99 49.99,49.99zm189.68 0c27.6,0 49.99,-22.38 49.99,-49.99 0,-27.61 -22.38,-49.99 -49.99,-49.99 -27.6,0 -49.98,22.38 -49.98,49.99 0,27.61 22.38,49.99 49.98,49.99zm189.68 0c27.61,0 49.99,-22.38 49.99,-49.99 0,-27.61 -22.38,-49.99 -49.99,-49.99 -27.61,0 -49.98,22.38 -49.98,49.99 0,27.61 22.38,49.99 49.98,49.99zm189.68 0c27.6,0 49.98,-22.38 49.98,-49.99 0,-27.61 -22.38,-49.99 -49.98,-49.99 -27.61,0 -49.99,22.38 -49.99,49.99 0,27.61 22.38,49.99 49.99,49.99zm-758.71 -189.68c27.6,0 49.98,-22.38 49.98,-49.99 0,-27.6 -22.38,-49.98 -49.98,-49.98 -27.61,0 -49.99,22.38 -49.99,49.98 0,27.61 22.38,49.99 49.99,49.99zm189.68 0c27.6,0 49.99,-22.38 49.99,-49.99 0,-27.6 -22.38,-49.98 -49.99,-49.98 -27.61,0 -49.99,22.38 -49.99,49.98 0,27.61 22.38,49.99 49.99,49.99zm189.68 0c27.6,0 49.99,-22.38 49.99,-49.99 0,-27.6 -22.38,-49.98 -49.99,-49.98 -27.6,0 -49.98,22.38 -49.98,49.98 0,27.61 22.38,49.99 49.98,49.99zm189.68 0c27.61,0 49.99,-22.38 49.99,-49.99 0,-27.6 -22.38,-49.98 -49.99,-49.98 -27.61,0 -49.98,22.38 -49.98,49.98 0,27.61 22.38,49.99 49.98,49.99zm189.68 0c27.6,0 49.98,-22.38 49.98,-49.99 0,-27.6 -22.38,-49.98 -49.98,-49.98 -27.61,0 -49.99,22.38 -49.99,49.98 0,27.61 22.38,49.99 49.99,49.99zm-758.71 -189.68c27.6,0 49.98,-22.38 49.98,-49.98 0,-27.6 -22.38,-49.98 -49.98,-49.98 -27.61,0 -49.99,22.38 -49.99,49.98 0,27.6 22.38,49.98 49.99,49.98zm189.68 0c27.6,0 49.99,-22.38 49.99,-49.98 0,-27.6 -22.38,-49.98 -49.99,-49.98 -27.61,0 -49.99,22.38 -49.99,49.98 0,27.6 22.38,49.98 49.99,49.98zm189.68 0c27.6,0 49.99,-22.38 49.99,-49.98 0,-27.6 -22.38,-49.98 -49.99,-49.98 -27.6,0 -49.98,22.38 -49.98,49.98 0,27.6 22.38,49.98 49.98,49.98zm189.68 0c27.61,0 49.99,-22.38 49.99,-49.98 0,-27.6 -22.38,-49.98 -49.99,-49.98 -27.61,0 -49.98,22.38 -49.98,49.98 0,27.6 22.38,49.98 49.98,49.98zm189.68 0c27.6,0 49.98,-22.38 49.98,-49.98 0,-27.6 -22.38,-49.98 -49.98,-49.98 -27.61,0 -49.99,22.38 -49.99,49.98 0,27.6 22.38,49.98 49.99,49.98zm-758.71 -189.68c27.6,0 49.98,-22.38 49.98,-49.99 0,-27.61 -22.38,-49.99 -49.98,-49.99 -27.61,0 -49.99,22.38 -49.99,49.99 0,27.6 22.38,49.99 49.99,49.99zm189.68 0c27.6,0 49.99,-22.38 49.99,-49.99 0,-27.61 -22.38,-49.99 -49.99,-49.99 -27.61,0 -49.99,22.38 -49.99,49.99 0,27.6 22.38,49.99 49.99,49.99zm189.68 0c27.6,0 49.99,-22.38 49.99,-49.99 0,-27.61 -22.38,-49.99 -49.99,-49.99 -27.6,0 -49.98,22.38 -49.98,49.99 0,27.6 22.38,49.99 49.98,49.99zm189.68 0c27.61,0 49.99,-22.38 49.99,-49.99 0,-27.61 -22.38,-49.99 -49.99,-49.99 -27.61,0 -49.98,22.38 -49.98,49.99 0,27.6 22.38,49.99 49.98,49.99zm189.68 0c27.6,0 49.98,-22.38 49.98,-49.99 0,-27.61 -22.38,-49.99 -49.98,-49.99 -27.61,0 -49.99,22.38 -49.99,49.99 0,27.6 22.38,49.99 49.99,49.99zm-758.71 -189.68c27.6,0 49.98,-22.38 49.98,-49.99 0,-27.6 -22.38,-49.98 -49.98,-49.98 -27.61,0 -49.99,22.38 -49.99,49.98 0,27.61 22.38,49.99 49.99,49.99zm189.68 0c27.6,0 49.99,-22.38 49.99,-49.99 0,-27.6 -22.38,-49.98 -49.99,-49.98 -27.61,0 -49.99,22.38 -49.99,49.98 0,27.61 22.38,49.99 49.99,49.99zm189.68 0c27.6,0 49.99,-22.38 49.99,-49.99 0,-27.6 -22.38,-49.98 -49.99,-49.98 -27.6,0 -49.98,22.38 -49.98,49.98 0,27.61 22.38,49.99 49.98,49.99zm189.68 0c27.61,0 49.99,-22.38 49.99,-49.99 0,-27.6 -22.38,-49.98 -49.99,-49.98 -27.61,0 -49.98,22.38 -49.98,49.98 0,27.61 22.38,49.99 49.98,49.99zm189.68 0c27.6,0 49.98,-22.38 49.98,-49.99 0,-27.6 -22.38,-49.98 -49.98,-49.98 -27.61,0 -49.99,22.38 -49.99,49.98 0,27.61 22.38,49.99 49.99,49.99z"/>
  <path class="fil1" d="M1895.48 7478.2c0,-1045.02 -847.16,-1892.17 -1892.18,-1892.17l0 -321.48c1222.58,0 2213.66,991.08 2213.66,2213.65l-321.48 0z"/>
 </g>
</svg>
