<?xml version="1.0" encoding="UTF-8"?>
<!DOCTYPE svg PUBLIC "-//W3C//DTD SVG 1.1//EN" "http://www.w3.org/Graphics/SVG/1.1/DTD/svg11.dtd">
<!-- Creator: CorelDRAW 2020 (64-Bit) -->
<svg xmlns="http://www.w3.org/2000/svg" xml:space="preserve" width="56.5336mm" height="56.534mm" version="1.1" style="shape-rendering:geometricPrecision; text-rendering:geometricPrecision; image-rendering:optimizeQuality; fill-rule:evenodd; clip-rule:evenodd"
viewBox="0 0 16197.94 16198.05"
 xmlns:xlink="http://www.w3.org/1999/xlink"
 xmlns:xodm="http://www.corel.com/coreldraw/odm/2003">
 <defs>
  <style type="text/css">
   <![CDATA[
    .str0 {stroke:#1F3F5C;stroke-width:57.3;stroke-miterlimit:22.9256}
    .fil1 {fill:#FFF212}
    .fil0 {fill:#234667}
   ]]>
  </style>
 </defs>
 <g id="Plan_x0020_1">
  <metadata id="CorelCorpID_0Corel-Layer"/>
  <path class="fil0 str0" d="M5459.5 28.65l5278.91 0c2986.99,0 5430.88,2443.75 5430.88,5430.99l0 5278.77c0,2987.25 -2443.89,5430.99 -5430.88,5430.99l-5278.91 0c-2986.96,0 -5430.85,-2443.75 -5430.85,-5430.99l0 -5278.77c0,-2987.25 2443.89,-5430.99 5430.85,-5430.99z"/>
  <path class="fil1" d="M4481.3 7840.19c-39.45,-371.87 -47.02,-290.73 -646.33,-264.11 -195.29,8.65 -344.54,49.51 -327.35,278.64 17.36,232.48 182.23,220.82 381.04,219.59 155.38,-0.97 475.51,38.57 537.14,-44.58 -12.06,55.04 46.73,17.05 -154.32,67.82 -77.56,19.57 -141.88,41.03 -202.86,67.99 -111.8,49.42 -266.52,157.64 -329.61,221.02 -151.85,152.57 -306.69,436.83 -320.36,753.72l-9.4 1625.85c-4.78,383.59 125.15,216.92 185.98,366.54 -0.97,570.49 -64.81,742.91 555.88,743.75 635.47,0.89 489.26,-261.56 524.7,-793.71l5035 -0.8c31.83,503.59 -105.55,796.69 498.26,794.63 642.55,-2.23 585.16,-141.6 583.67,-743.86 48.85,-122.06 196.67,-38.54 220.3,-265.63l1.75 -1517.69c0.03,-346.8 13.27,-569.83 -153.03,-836 -99.85,-159.82 -327.63,-380.61 -559.83,-433.93 147.61,-15.33 366.14,24.93 494.73,-30.54 124.12,-53.55 180.99,-261.62 76.7,-386.54 -98.1,-117.47 -802.91,-141.57 -962.82,-81.6l-31.06 296.66c-125.72,-487.37 -72.72,-1003.25 -721,-1358.9 -418.52,-229.59 -1414.06,-148.56 -1965.23,-151.51 -884.54,-4.76 -2003.74,-216.15 -2472,667.65 -71.52,134.98 -232.68,656.73 -239.96,805.58zm267.64 221.02c1658.57,-130.82 3204.51,-96.1 4870.02,-34.35 -55.38,-613.44 -258.87,-1096.22 -643.18,-1325.58 -305.92,-182.6 -1373.28,-116.27 -1808.59,-120.11 -323.37,-2.87 -647.1,-5.79 -970.5,-6.93 -377.4,-1.32 -531.21,-32.35 -815.03,150.39 -328.67,211.62 -615.36,781.02 -632.72,1336.58zm4903.2 -1229.51l75.76 143.92c273.74,-151 63.95,-210.13 796.01,-205.2 323.45,2.18 646.87,5.9 970.32,8.34 365.08,2.78 572.26,-52.35 800.25,170.54 184.98,180.88 256.63,400.27 285.37,726.87l-1613.79 -50.54c141.54,512.55 -161.83,479 -301.39,543.58 208.76,225.69 392.65,358.64 426.45,793.34l898.41 -0.06 0.97 -420.81 175.32 2.81 5.27 567.39 -1068.2 8.71 -6.05 459.43 1543.94 1.81c7.71,333.19 -47.5,493.21 321.42,495.05 628.11,3.12 208.64,-332.85 425.94,-513.79 19.6,-16.3 55.67,-33.84 74.44,-45.7 37.02,-310.93 15.16,-810.7 11.55,-1138.71 -1.98,-180.99 -44.44,-317.95 -125.78,-437.43 -48.59,-71.43 -204.17,-206.87 -318.64,-227.58 162.77,-22.63 394.59,36.47 382.56,-172.6 -10.89,-189.1 -247.24,-139.16 -425.14,-160.39 53.38,-37.05 122.17,-73.52 143.37,-144.98 54.84,-184.58 -114.64,-319.12 -282.42,-234.2 -121.4,61.43 -50.17,115.72 -147.47,171.14 -121.57,-62.95 -116.3,-304.08 -459.78,-457.8 -246.58,-110.34 -593.27,-72.23 -877.72,-74.04 -513.1,-3.21 -1387.58,-109.71 -1710.98,190.91zm937 2762.59c45.87,-109.22 44.55,-325.77 35.13,-481.87 -12.92,-213.86 -179.13,-140.11 -374.25,-110.28 -785.18,120.05 -1033.99,7.97 -1057.48,514.47 -9.08,196.04 231.48,131.03 387.23,124.75 296.52,-11.98 750.13,3.07 1009.38,-47.08zm-6752.73 -5.21c138.7,61.11 789.53,43.78 996.54,52.29 174.4,7.16 393.05,68.33 380.12,-122.63 -10.49,-155.61 -59.45,-319.7 -151.51,-371.39 -105.27,-59.08 -730.94,-119.16 -903.31,-145.01 -166.84,-24.98 -361.62,-106.36 -379.06,108.25 -12.46,153.32 -21.72,379.69 57.22,478.49zm8478.52 -927.23c144.86,53.32 739.85,16.42 894.97,-10.74 94.04,-479.46 -29.57,-392.59 -395.17,-343.65 -323.14,43.26 -516.36,-10.63 -499.8,354.4zm-1186.65 -2070.59c238.87,3.61 1076.16,26.88 1235.1,-16.47 36.53,-200.62 -98.33,-142.31 -528.2,-142.31 -236.23,0 -472.5,0.46 -708.7,-0.11l1.81 158.9zm-1260.02 1.72l1049.83 -0.77 3.09 -159.53 -1131.84 4.96c-134.38,37.82 -106.1,155.04 78.91,155.35z"/>
 </g>
</svg>
