<?xml version="1.0" encoding="UTF-8"?>
<!DOCTYPE svg PUBLIC "-//W3C//DTD SVG 1.1//EN" "http://www.w3.org/Graphics/SVG/1.1/DTD/svg11.dtd">
<!-- Creator: CorelDRAW 2020 (64-Bit) -->
<svg xmlns="http://www.w3.org/2000/svg" xml:space="preserve" width="56.5336mm" height="56.534mm" version="1.1" style="shape-rendering:geometricPrecision; text-rendering:geometricPrecision; image-rendering:optimizeQuality; fill-rule:evenodd; clip-rule:evenodd"
viewBox="0 0 1801.17 1801.18"
 xmlns:xlink="http://www.w3.org/1999/xlink"
 xmlns:xodm="http://www.corel.com/coreldraw/odm/2003">
 <defs>
  <style type="text/css">
   <![CDATA[
    .str0 {stroke:#1F3F5C;stroke-width:6.37;stroke-miterlimit:22.9256}
    .fil1 {fill:#FFF212}
    .fil0 {fill:#234667}
   ]]>
  </style>
 </defs>
 <g id="Plan_x0020_1">
  <metadata id="CorelCorpID_0Corel-Layer"/>
  <path class="fil0 str0" d="M607.08 3.19l587 0c332.15,0 603.9,271.74 603.9,603.91l0 586.98c0,332.17 -271.75,603.91 -603.9,603.91l-587 0c-332.14,0 -603.9,-271.74 -603.9,-603.91l0 -586.98c0,-332.17 271.75,-603.91 603.9,-603.91z"/>
  <path class="fil1" d="M891.46 445.85c-22.01,12.26 -515.42,512.45 -565.63,562.38 -29.61,29.46 -51.05,35.89 -13.48,71.77 14.22,13.58 52.38,55.78 62.06,61.71 22.37,13.69 49.48,-24.05 100.4,-18.66 63.95,6.77 119.26,76.3 86.02,150.09 -15.77,35.01 -31.19,25.16 19.2,74.56 13.62,13.36 48.2,60.33 71.27,50.06l595.88 -595.54c9.39,-20.3 -8.31,-30.82 -17.77,-40.31 -11.14,-11.18 -53.08,-56.03 -62.41,-61.49 -21.34,-12.5 -49.78,24.79 -100.69,19.05 -62.58,-7.07 -118.51,-76.38 -85.37,-149.35 23.51,-51.76 27.53,-25.26 -51.02,-107.7 -9.5,-9.98 -20.03,-26.83 -38.46,-16.56zm-51.11 159.16l-358.05 357.48c-50.09,50.58 -45.06,39.49 47.11,132.5l119.79 119.81c10.53,10.76 28.09,37.34 54.19,21.52 12.17,-7.38 64.16,-63.54 79.23,-78.26l239.47 -239.74c14.13,-13.95 25.63,-25.16 39.44,-39.2 48.22,-49 40.85,-43.24 -48.1,-129.66 -8.28,-8.05 -11.24,-13.08 -18.04,-19.34 -11.1,-10.21 -12.75,-9.71 -21.16,-19.97 -10.75,-13.1 -27.41,-30.17 -40.79,-41.64 -39.26,-33.69 -63.52,-80.22 -93.09,-63.51zm4.44 26.47l-292.87 292.1c-108.3,107.85 -113.79,55.8 96.57,269.53 46.36,47.1 50.59,15.7 124.14,-56.27 25.11,-24.57 48.45,-47.63 73.07,-73.03 48.93,-50.47 96.98,-95.75 146.04,-146.01 98.3,-100.71 95.73,-70.72 12.31,-155.18 -25.1,-25.41 -47.71,-47.82 -72.95,-73.06 -36.76,-36.75 -59.82,-73.32 -86.32,-58.09zm295.85 305.13c39.95,1.63 94.12,-3.47 131.13,0.6 39.88,4.38 26.41,71.69 26.41,107.62l0.12 198.65c-1.45,37.64 -18.1,34.27 -52.33,34.28l-441.76 0.04c-15.15,0 -74.34,64.37 -79.77,74.97l682.51 0.31c38.37,-0.1 29.84,-20.7 29.7,-53.68 -0.41,-100.39 9.33,-75.34 -41.73,-96.61 -38.02,-15.83 -65.46,-57.27 -61.88,-104.83 2.49,-33.05 22.25,-59.31 39.54,-72.63 61.05,-47.01 64.08,27.74 64.05,-130.27 0,-45.37 -22.34,-33.44 -67.13,-33.41 -33.7,0.02 -67.39,0.01 -101.08,0 -57.38,-0.02 -47.61,-7.95 -78.63,22.15 -14.38,13.95 -41.25,36.24 -49.16,52.8zm-320.62 319.98c132,3.24 267.32,-0.05 399.76,0.29 34.17,0.09 61.79,6.46 63.53,-32.16l-0.1 -202.36c0.22,-75.87 8.82,-64.45 -145.8,-64.45 -34.38,0 -47.17,25.33 -88.02,66.31 -26.39,26.48 -50.23,50.23 -76.73,76.69 -22.88,22.84 -143.43,139.42 -152.64,155.68z"/>
 </g>
</svg>
