<?xml version="1.0" standalone="no"?>
<!DOCTYPE svg PUBLIC "-//W3C//DTD SVG 20010904//EN"
 "http://www.w3.org/TR/2001/REC-SVG-20010904/DTD/svg10.dtd">
<svg version="1.0" xmlns="http://www.w3.org/2000/svg"
 width="381.000000pt" height="138.000000pt" viewBox="0 0 381.000000 138.000000"
 preserveAspectRatio="xMidYMid meet">

<g transform="translate(0.000000,138.000000) scale(0.100000,-0.100000)"
fill="#000000" stroke="none">
<path d="M1173 1145 c-44 -22 -81 -48 -94 -67 -13 -17 -18 -28 -11 -24 9 5 12
-14 12 -75 l0 -82 23 19 c22 19 22 19 6 -1 -21 -25 -35 -85 -20 -85 6 0 8 8 5
18 -5 14 -4 15 5 2 16 -22 13 -30 -8 -30 -25 0 -51 -10 -51 -20 0 -6 20 -13
105 -34 11 -3 -2 -3 -30 -1 l-50 4 43 -39 c75 -67 179 -86 290 -51 54 16 63
17 93 3 44 -19 152 -18 208 2 24 9 58 16 77 16 36 0 54 17 33 31 -13 9 -23 8
-83 -7 -21 -5 -24 -1 -31 32 -4 21 -18 57 -31 80 -31 52 -30 85 2 123 29 35
24 37 -37 16 -45 -16 -59 -10 -59 27 0 9 -6 23 -12 30 -7 8 -18 23 -24 33 -19
34 -92 84 -146 100 -82 24 -133 19 -215 -20z m385 -381 c-4 -20 -34 -41 -44
-31 -8 8 24 47 38 47 5 0 8 -7 6 -16z"/>
<path d="M733 748 c26 -18 47 -35 47 -38 0 -3 -17 -15 -38 -27 -92 -52 -175
-135 -247 -247 l-19 -28 40 19 c21 11 66 30 100 42 50 18 65 29 83 61 33 59
100 140 115 140 7 0 31 -25 51 -55 21 -30 40 -55 43 -55 16 0 82 24 82 30 0 9
-89 93 -115 108 -20 11 -19 12 5 32 29 23 25 24 -19 9 -26 -9 -41 -7 -96 15
-84 34 -89 33 -32 -6z"/>
<path d="M1196 564 l-45 -47 2 -71 c2 -80 25 -123 80 -153 47 -26 159 -23 220
4 l47 22 0 64 0 64 -39 6 c-21 2 -59 2 -85 0 -39 -5 -45 -8 -42 -27 2 -17 11
-22 44 -24 37 -3 42 -6 42 -28 0 -17 -8 -28 -27 -35 -36 -14 -96 -13 -122 1
-46 24 -69 131 -36 164 8 8 15 19 15 24 0 14 48 32 86 32 26 0 43 -8 62 -27
21 -22 35 -27 60 -25 39 4 43 28 10 59 -40 36 -65 43 -147 43 l-80 0 -45 -46z"/>
<path d="M1569 548 c-2 -196 9 -240 65 -263 45 -19 127 -19 171 -1 56 24 64
46 65 181 1 66 1 126 1 133 -1 9 -13 12 -37 10 l-36 -3 -1 -121 c-1 -81 -6
-126 -15 -136 -18 -23 -62 -28 -99 -13 -27 11 -32 20 -37 57 -4 24 -6 72 -5
108 3 112 3 110 -36 110 l-35 0 -1 -62z"/>
<path d="M1950 440 l0 -171 38 3 37 3 0 165 0 165 -37 3 -38 3 0 -171z"/>
<path d="M2100 439 l0 -170 38 3 37 3 3 61 3 62 69 4 c50 3 77 9 97 24 36 27
51 81 33 124 -20 48 -54 60 -175 60 l-105 0 0 -171z m198 93 c30 -40 0 -72
-69 -72 l-49 0 0 48 0 47 52 -3 c34 -2 58 -9 66 -20z"/>
<path d="M2450 446 c0 -91 3 -167 8 -169 4 -2 69 -2 145 1 136 4 137 4 137 28
0 24 -1 24 -105 24 l-105 0 0 44 0 43 46 7 c26 3 69 6 96 6 45 0 49 2 46 23
-3 21 -8 22 -95 25 l-93 3 0 39 0 40 100 0 100 0 0 25 0 25 -140 0 -140 0 0
-164z"/>
<path d="M2787 598 c81 -107 103 -138 103 -149 0 -6 -15 -30 -33 -53 -18 -23
-45 -58 -60 -78 l-28 -38 45 0 c42 0 46 3 81 50 20 28 40 50 45 50 5 0 25 -22
45 -50 35 -47 39 -50 81 -50 l45 0 -61 79 c-33 44 -60 85 -60 91 0 5 25 44 55
85 l56 75 -44 0 c-40 0 -46 -3 -75 -45 -17 -25 -36 -45 -41 -45 -5 0 -24 20
-42 45 -30 42 -36 45 -77 45 -34 0 -42 -3 -35 -12z"/>
<path d="M975 514 c-22 -13 -40 -27 -40 -31 1 -4 6 -33 12 -63 7 -30 14 -76
18 -102 l6 -48 91 0 91 0 -7 33 c-10 48 -104 237 -119 236 -6 0 -30 -12 -52
-25z"/>
<path d="M532 357 l-92 -31 -19 -51 c-39 -105 -47 -95 76 -95 l109 0 11 83 c7
45 15 92 19 105 8 27 10 27 -104 -11z"/>
<path d="M651 219 c-14 -41 -14 -44 3 -29 8 6 12 18 9 26 -11 28 12 13 26 -17
19 -42 25 -29 7 15 -18 44 -31 46 -45 5z"/>
<path d="M1127 243 c-12 -12 -7 -50 7 -63 8 -6 25 -10 38 -8 28 4 38 38 11 37
-10 0 -13 -3 -5 -6 23 -9 12 -24 -15 -21 -22 2 -28 8 -28 28 0 21 5 25 32 25
17 0 29 3 26 7 -5 10 -57 10 -66 1z"/>
<path d="M1829 238 c-1 -7 0 -23 1 -35 1 -16 -4 -23 -15 -23 -13 0 -16 6 -12
26 3 16 1 22 -5 16 -16 -16 -4 -47 20 -50 20 -3 22 1 22 37 0 37 -8 59 -11 29z"/>
<path d="M1971 208 c1 -24 3 -36 6 -27 2 9 18 19 34 23 42 8 36 40 -9 44 -32
3 -32 3 -31 -40z m59 23 c0 -12 -29 -23 -41 -15 -5 3 -7 10 -4 15 8 12 45 12
45 0z"/>
<path d="M2649 238 c-1 -7 -2 -22 -3 -33 -1 -11 -9 -21 -20 -23 -15 -3 -18 1
-14 23 4 17 2 23 -4 17 -18 -18 -4 -47 25 -50 25 -3 27 -1 27 37 0 38 -8 58
-11 29z"/>
<path d="M2850 210 c0 -39 1 -40 33 -39 30 2 30 2 5 6 -16 2 -28 10 -28 18 0
8 12 16 28 18 l27 4 -27 2 c-16 0 -28 5 -28 10 0 5 12 12 28 14 25 4 25 4 -5
6 -32 1 -33 0 -33 -39z"/>
<path d="M2360 211 c0 -42 15 -46 16 -5 0 19 -3 34 -8 34 -4 0 -8 -13 -8 -29z"/>
<path d="M3178 235 c-6 -7 2 -54 11 -59 7 -5 7 52 -1 59 -2 3 -7 3 -10 0z"/>
<path d="M3288 235 c-7 -7 3 -65 11 -65 4 0 5 16 3 35 -4 36 -5 38 -14 30z"/>
<path d="M723 215 c-3 -9 -3 -18 -1 -21 3 -3 8 4 11 16 6 23 -1 27 -10 5z"/>
<path d="M764 191 c0 -22 4 -37 8 -35 11 7 10 74 0 74 -5 0 -8 -18 -8 -39z"/>
<path d="M807 223 c-9 -9 -9 -41 1 -46 4 -3 7 8 7 24 0 16 0 29 -1 29 0 0 -4
-3 -7 -7z"/>
<path d="M836 217 c3 -10 9 -15 12 -12 3 3 0 11 -7 18 -10 9 -11 8 -5 -6z"/>
<path d="M870 200 c0 -16 2 -30 4 -30 2 0 6 14 8 30 3 17 1 30 -4 30 -4 0 -8
-13 -8 -30z"/>
<path d="M905 220 c3 -5 8 -10 11 -10 2 0 4 5 4 10 0 6 -5 10 -11 10 -5 0 -7
-4 -4 -10z"/>
<path d="M944 215 c-13 -32 23 -63 40 -36 4 5 -4 7 -15 4 -19 -5 -21 -3 -17
20 6 29 1 36 -8 12z"/>
<path d="M1014 215 c-10 -24 4 -45 28 -44 l23 2 -23 4 c-17 3 -21 10 -18 29 5
27 -1 32 -10 9z"/>
<path d="M1046 215 c4 -8 10 -15 15 -15 4 0 6 7 3 15 -4 8 -10 15 -15 15 -4 0
-6 -7 -3 -15z"/>
<path d="M1220 206 c0 -14 4 -27 8 -30 5 -3 6 8 4 25 -5 35 -12 38 -12 5z"/>
<path d="M1262 200 c0 -19 2 -27 5 -17 2 9 2 25 0 35 -3 9 -5 1 -5 -18z"/>
<path d="M1292 200 c0 -19 2 -27 5 -17 2 9 2 25 0 35 -3 9 -5 1 -5 -18z"/>
<path d="M1320 200 c0 -16 2 -30 4 -30 2 0 6 14 8 30 3 17 1 30 -4 30 -4 0 -8
-13 -8 -30z"/>
<path d="M1358 200 c2 -16 6 -30 8 -30 2 0 4 14 4 30 0 17 -4 30 -8 30 -5 0
-7 -13 -4 -30z"/>
<path d="M1394 215 c-10 -24 4 -45 28 -44 l23 2 -23 4 c-17 3 -21 10 -18 29 5
27 -1 32 -10 9z"/>
<path d="M1430 215 c0 -8 4 -15 10 -15 5 0 7 7 4 15 -4 8 -8 15 -10 15 -2 0
-4 -7 -4 -15z"/>
<path d="M1464 215 c-10 -24 4 -45 28 -44 22 0 22 1 3 8 -22 9 -27 31 -10 43
6 5 5 8 -3 8 -7 0 -15 -7 -18 -15z"/>
<path d="M1503 215 c0 -8 4 -15 9 -15 4 0 8 4 8 9 0 6 -4 12 -8 15 -5 3 -9 -1
-9 -9z"/>
<path d="M1540 200 c0 -16 2 -30 4 -30 2 0 6 14 8 30 3 17 1 30 -4 30 -4 0 -8
-13 -8 -30z"/>
<path d="M1579 198 c4 -28 6 -29 9 -9 2 13 0 27 -5 32 -6 6 -7 -3 -4 -23z"/>
<path d="M1610 200 c0 -16 2 -30 4 -30 2 0 6 14 8 30 3 17 1 30 -4 30 -4 0 -8
-13 -8 -30z"/>
<path d="M1648 200 c2 -16 6 -30 8 -30 2 0 4 14 4 30 0 17 -4 30 -8 30 -5 0
-7 -13 -4 -30z"/>
<path d="M1684 215 c-10 -24 4 -45 28 -44 l23 2 -23 4 c-23 5 -27 31 -7 45 6
5 5 8 -3 8 -7 0 -15 -7 -18 -15z"/>
<path d="M1723 215 c0 -8 4 -15 9 -15 4 0 8 4 8 9 0 6 -4 12 -8 15 -5 3 -9 -1
-9 -9z"/>
<path d="M1864 215 c-10 -24 4 -45 28 -44 22 0 22 1 3 8 -22 9 -27 31 -10 43
6 5 5 8 -3 8 -7 0 -15 -7 -18 -15z"/>
<path d="M1903 215 c0 -8 4 -15 9 -15 4 0 8 4 8 9 0 6 -4 12 -8 15 -5 3 -9 -1
-9 -9z"/>
<path d="M2060 200 c0 -16 2 -30 4 -30 2 0 6 14 8 30 3 17 1 30 -4 30 -4 0 -8
-13 -8 -30z"/>
<path d="M2104 215 c-10 -25 4 -47 28 -43 17 2 23 10 23 27 0 13 -7 27 -15 29
-13 4 -13 3 -2 -11 16 -18 8 -37 -15 -37 -11 0 -14 7 -11 25 6 28 1 33 -8 10z"/>
<path d="M2182 205 c0 -16 2 -22 5 -12 2 9 2 23 0 30 -3 6 -5 -1 -5 -18z"/>
<path d="M2208 218 c5 -7 12 -22 14 -33 3 -14 6 -11 9 13 5 27 2 32 -14 32
-14 0 -17 -3 -9 -12z"/>
<path d="M2259 198 c4 -28 6 -29 9 -9 2 13 0 27 -5 32 -6 6 -7 -3 -4 -23z"/>
<path d="M2294 215 c-15 -37 21 -60 46 -29 11 12 11 18 -2 30 -14 14 -15 13
-11 -10 4 -20 1 -26 -12 -26 -13 0 -16 6 -13 25 6 28 1 33 -8 10z"/>
<path d="M2424 215 c-10 -25 4 -47 28 -43 17 2 23 10 23 27 0 13 -7 27 -15 29
-13 4 -13 3 -2 -11 16 -18 8 -37 -15 -37 -11 0 -14 7 -11 25 6 28 1 33 -8 10z"/>
<path d="M2495 220 c-3 -5 -2 -10 4 -10 5 0 13 5 16 10 3 6 2 10 -4 10 -5 0
-13 -4 -16 -10z"/>
<path d="M2539 198 c4 -28 6 -29 9 -9 2 13 0 27 -5 32 -6 6 -7 -3 -4 -23z"/>
<path d="M2676 213 c-4 -9 -1 -22 6 -29 11 -11 13 -8 13 16 0 33 -9 39 -19 13z"/>
<path d="M2713 215 c0 -8 4 -15 9 -15 4 0 8 4 8 9 0 6 -4 12 -8 15 -5 3 -9 -1
-9 -9z"/>
<path d="M2750 215 c0 -8 4 -15 10 -15 5 0 7 7 4 15 -4 8 -8 15 -10 15 -2 0
-4 -7 -4 -15z"/>
<path d="M2934 198 c-1 -22 2 -26 11 -18 9 8 14 7 17 -2 3 -7 5 1 5 17 0 41
-32 43 -33 3z"/>
<path d="M2990 188 c0 -23 3 -39 6 -35 9 9 11 77 2 77 -5 0 -8 -19 -8 -42z"/>
<path d="M3030 215 c10 -12 10 -18 -1 -32 -12 -17 -12 -17 4 -2 18 16 14 49
-5 49 -6 0 -5 -6 2 -15z"/>
<path d="M3064 215 c-10 -25 4 -47 28 -43 17 2 23 10 23 27 0 13 -7 27 -15 29
-13 4 -13 3 -2 -11 16 -18 8 -37 -15 -37 -11 0 -14 7 -11 25 6 28 1 33 -8 10z"/>
<path d="M3140 205 c0 -14 2 -25 4 -25 2 0 6 11 8 25 3 14 1 25 -3 25 -5 0 -9
-11 -9 -25z"/>
<path d="M3254 199 c-1 -16 2 -29 7 -29 11 0 12 47 1 54 -4 2 -8 -9 -8 -25z"/>
<path d="M3322 200 c0 -19 2 -27 5 -17 2 9 2 25 0 35 -3 9 -5 1 -5 -18z"/>
<path d="M3349 213 c-13 -16 -12 -17 4 -4 16 13 21 21 13 21 -2 0 -10 -8 -17
-17z"/>
<path d="M3388 203 c4 -23 2 -25 -18 -20 -16 4 -20 3 -12 -5 6 -6 18 -8 26 -5
17 7 22 42 7 51 -4 3 -6 -6 -3 -21z"/>
<path d="M3420 200 c0 -16 2 -30 4 -30 2 0 6 14 8 30 3 17 1 30 -4 30 -4 0 -8
-13 -8 -30z"/>
<path d="M3458 205 c2 -14 6 -25 8 -25 2 0 4 11 4 25 0 14 -4 25 -9 25 -4 0
-6 -11 -3 -25z"/>
<path d="M3495 221 c-3 -6 4 -15 15 -21 11 -6 17 -16 14 -22 -4 -7 -3 -8 4 -4
18 11 14 24 -8 31 -11 4 -18 11 -15 16 4 5 4 9 1 9 -3 0 -7 -4 -11 -9z"/>
<path d="M2392 200 c0 -14 2 -19 5 -12 2 6 2 18 0 25 -3 6 -5 1 -5 -13z"/>
<path d="M2780 191 c0 -5 -8 -12 -17 -14 -14 -4 -13 -5 4 -6 24 -1 39 14 23
24 -5 3 -10 2 -10 -4z"/>
<path d="M3210 191 c0 -6 4 -12 8 -15 5 -3 9 1 9 9 0 8 -4 15 -9 15 -4 0 -8
-4 -8 -9z"/>
</g>
</svg>
