<?xml version="1.0" encoding="UTF-8"?>
<!DOCTYPE svg PUBLIC "-//W3C//DTD SVG 1.1//EN" "http://www.w3.org/Graphics/SVG/1.1/DTD/svg11.dtd">
<!-- Creator: CorelDRAW 2020 (64-Bit) -->
<svg xmlns="http://www.w3.org/2000/svg" xml:space="preserve" width="106.539mm" height="129.401mm" version="1.1" style="shape-rendering:geometricPrecision; text-rendering:geometricPrecision; image-rendering:optimizeQuality; fill-rule:evenodd; clip-rule:evenodd"
viewBox="0 0 1733.98 2106.08"
 xmlns:xlink="http://www.w3.org/1999/xlink"
 xmlns:xodm="http://www.corel.com/coreldraw/odm/2003">
 <defs>
  <style type="text/css">
   <![CDATA[
    .fil0 {fill:#898989}
   ]]>
  </style>
 </defs>
 <g id="Plan_x0020_1">
  <metadata id="CorelCorpID_0Corel-Layer"/>
  <path class="fil0" d="M-0 1130c0,44.36 33.16,188.25 46.05,241.03l100.81 473.36c20.71,93.08 11.91,169.83 117.26,169.83l1211.49 0c98.04,0 92.89,-86.11 111.52,-169.83l146.86 -697.16c0,-47.59 -29.6,-79.04 -58.55,-84.99l-217.05 -1.13c-14.06,0 -22.17,-3.22 -29.42,-3.39l-56.71 3.39c-14.06,0 -22.16,-3.22 -29.42,-3.39l-56.71 3.39c-14.06,0 -22.17,-3.22 -29.42,-3.39l-56.71 3.39c-14.06,0 -22.17,-3.22 -29.42,-3.39l-56.71 3.39c-14.06,0 -22.16,-3.22 -29.42,-3.39l-56.71 3.39c-14.06,0 -22.17,-3.22 -29.42,-3.39l-56.71 3.39c-14.06,0 -22.16,-3.22 -29.42,-3.39l-56.71 3.39c-14.06,0 -22.16,-3.22 -29.42,-3.39l-56.71 3.39c-14.06,0 -22.17,-3.22 -29.42,-3.39l-50.97 3.39c-14.06,0 -22.17,-3.22 -29.42,-3.39l-56.71 3.39c-14.06,0 -22.16,-3.22 -29.42,-3.39l-56.71 3.39c-14.06,0 -22.17,-3.22 -29.42,-3.39l-56.71 3.39c-14.06,0 -22.16,-3.22 -29.42,-3.39l-56.71 3.39c-14.06,0 -22.16,-3.22 -29.42,-3.39l-56.71 3.39c-14.06,0 -22.17,-3.22 -29.42,-3.39l-170.33 4.6c-24.6,5.05 -58.63,35.83 -58.63,67.69z"/>
  <path class="fil0" d="M516.75 320.43c0,143.44 15.75,263 89.46,375.61 31.46,48.06 74.47,94.75 123.88,123.01 238.39,136.29 464.17,-129.96 464.17,-481.39 0,-129.35 -82.64,-245.38 -197.05,-302.48 -247.75,-123.64 -480.47,104.46 -480.47,285.25z"/>
  <path class="fil0" d="M252.63 1043.88c389.78,0 794.41,-3.97 1183.16,0.3 51.23,0.56 62.31,5.38 -2.72,-78.34 -108.22,-139.33 -273.69,-146.55 -296.23,-157.36 -20,41.68 -5.44,67.44 -94.73,111.97 -115.74,57.73 -309.28,50.97 -409.04,-38.83 -10.62,-9.56 -14.34,-16.62 -20.94,-30.73 -8.22,-17.55 -8.14,-28.1 -15,-42.41 -48.76,23.4 -176.76,1.37 -318.27,187 -12.28,16.11 -24.33,25.54 -26.23,48.41z"/>
  <path class="fil0" d="M132.06 2060.15c0,28.96 15.51,45.93 34.45,45.93l1395.22 0c49.1,0 55.19,-61.84 12.55,-76.09 -18.64,-6.23 -22.66,1.44 -47,1.44 -24.26,0 -31.9,-4.16 -46.47,-4.6 -19.35,-0.58 -19.12,4.6 -45.4,4.6 -22.63,0 -26.21,-4.07 -40.19,-4.07l-45.93 4.07c-22.63,0 -26.21,-4.07 -40.19,-4.07l-45.93 4.07c-22.63,0 -26.21,-4.07 -40.19,-4.07l-81.65 0.18c-19.17,-1.05 -16.49,3.88 -38.92,3.88 -24.27,0 -31.9,-4.16 -46.47,-4.6 -19.35,-0.58 -19.12,4.6 -45.4,4.6 -23.9,0 -25.53,-4.16 -40.73,-4.6 -19.4,-0.56 -19.11,4.6 -45.4,4.6 -23.91,0 -25.54,-4.16 -40.73,-4.6 -19.39,-0.56 -19.11,4.6 -45.4,4.6 -23.91,0 -25.53,-4.16 -40.73,-4.6 -19.4,-0.56 -19.11,4.6 -45.4,4.6 -23.91,0 -25.54,-4.16 -40.73,-4.6 -19.39,-0.56 -19.11,4.6 -45.4,4.6 -22.63,0 -26.21,-4.07 -40.19,-4.07l-45.93 4.07c-22.63,0 -26.21,-4.07 -40.19,-4.07l-81.65 0.18c-19.17,-1.05 -16.49,3.88 -38.92,3.88 -24.27,0 -31.9,-4.16 -46.47,-4.6 -19.35,-0.58 -19.12,4.6 -45.4,4.6 -23.91,0 -25.53,-4.16 -40.73,-4.6 -19.4,-0.56 -19.11,4.6 -45.4,4.6 -31.24,0 -109.09,-15.73 -109.09,28.71z"/>
 </g>
</svg>
