<?xml version="1.0" encoding="UTF-8"?>
<!DOCTYPE svg PUBLIC "-//W3C//DTD SVG 1.1//EN" "http://www.w3.org/Graphics/SVG/1.1/DTD/svg11.dtd">
<!-- Creator: CorelDRAW 2020 (64-Bit) -->
<svg xmlns="http://www.w3.org/2000/svg" xml:space="preserve" width="56.5336mm" height="56.534mm" version="1.1" style="shape-rendering:geometricPrecision; text-rendering:geometricPrecision; image-rendering:optimizeQuality; fill-rule:evenodd; clip-rule:evenodd"
viewBox="0 0 1994.22 1994.23"
 xmlns:xlink="http://www.w3.org/1999/xlink"
 xmlns:xodm="http://www.corel.com/coreldraw/odm/2003">
 <defs>
  <style type="text/css">
   <![CDATA[
    .str0 {stroke:#1F3F5C;stroke-width:7.05;stroke-miterlimit:22.9256}
    .fil1 {fill:#FFF212}
    .fil0 {fill:#234667}
   ]]>
  </style>
 </defs>
 <g id="Plan_x0020_1">
  <metadata id="CorelCorpID_0Corel-Layer"/>
  <path class="fil0 str0" d="M672.15 3.53l649.92 0c367.74,0 668.63,300.86 668.63,668.64l0 649.9c0,367.78 -300.88,668.64 -668.63,668.64l-649.92 0c-367.74,0 -668.62,-300.86 -668.62,-668.64l0 -649.9c0,-367.78 300.88,-668.64 668.62,-668.64z"/>
  <path class="fil1" d="M171.07 1174.38l-26.18 7.39c-4.8,61.75 -10.75,63.18 87.11,57.53 2.67,-43.35 6.83,-65.69 28.73,-93.01 42.4,-52.87 129.78,-55.32 175.83,-2.59 24.58,28.15 27.09,49.68 30.79,95.68l424.25 0.42c10.29,-45.95 -0.62,-59.9 30.83,-94.52 19.12,-21.04 49.7,-39.83 87.7,-40.03 42.3,-0.22 68.07,18.74 87.87,39.94 27.3,29.22 25.1,49.6 31.21,94.72l61.67 -1.15c17.93,-69.38 -15.64,-60.55 -24.13,-64.39 -2.02,-32.64 2.96,-60.89 -6.24,-87.02 -54.16,-18.59 -400.68,0.15 -494.59,-6.12 -14.3,-82.67 23.43,-215 -28.29,-233.3 -20.52,-7.26 -100.94,-3.7 -127.97,-3.76 -88.4,-0.19 -86.97,-7.68 -148.13,119.02 -12.31,25.52 -11.2,20.77 -38.11,29.3 -172.61,54.74 -145.47,49.42 -152.36,181.88zm972.3 -223.33c14.74,10.11 23.97,14.35 39.03,23.06 16.85,-22.14 18.16,-34.95 47.97,-48.46 49.65,-22.5 110.78,3.55 125.16,56.67 10.84,40.03 -6.33,55.44 -12.36,83.84l247.05 143.33c49.75,-91.25 144.69,-61.92 169.32,0.04 14.02,35.27 2.82,51.53 -5.6,82.08l50.26 10.49c19.7,-29.77 55.72,-66.94 61.97,-114.2 -38.5,-36.75 -37.35,-23.79 -60.57,-83.05 -43.77,-111.73 -56.21,-111.82 -134.67,-158.54 -109.24,-65.05 -90.17,-65.24 -227.93,-67.06 -62,-0.82 -75.56,2.72 -132.94,-13.84 -33.66,-9.71 -87.84,-32.42 -118.13,-9.98 -20.84,15.44 -50.22,54.55 -48.6,95.61zm-421.19 104.68l174.99 0.64 170.78 -288.71c24.73,-49.36 -31.63,-87.79 -67.45,-53.86 -23.75,22.49 -48.34,59 -69.59,83.83 -27.95,32.66 -198.17,237.59 -208.74,258.1zm275 76.45c-124.05,22.24 -89.52,200.03 30.07,180.94 115.36,-18.4 88.96,-202.29 -30.07,-180.94zm-665.5 0.99c-122.67,27.8 -80.31,206.83 40.51,178.53 43.68,-10.23 80.24,-55 66.58,-111.72 -9.88,-41.06 -53.65,-78.91 -107.09,-66.8zm52.47 -157.79l205.81 0.38c0.85,-29.02 5.12,-77.13 -4.95,-102.23 -22.37,-8.52 -131.79,-10.22 -145.28,1.04 -11.39,9.49 -48.52,81.31 -55.58,100.82zm1276.38 197.61c-95.45,22.56 -61.07,161.64 33.03,139.1 88.19,-21.12 58.04,-160.63 -33.03,-139.1zm-403.25 -235.36c-93.17,16.77 -69.56,159.3 26.32,140.6 87.21,-17.01 64.94,-157.03 -26.32,-140.6zm321.03 72.82l42.59 -70.04c-51.58,-50.6 -159.22,-47.13 -235.25,-43.4 5.46,9.38 173.25,104.36 192.66,113.44zm-400.85 -24.89c-46.72,-2.17 -3.1,53.12 -49.8,49.32 -14.29,-1.16 -22.63,-11.19 -20.6,-25.97 2.16,-15.77 16.43,-20.46 24.97,-28.42 1.21,-23.6 -47.74,-169.02 -60.35,-196.72 -29.97,43.71 -16.72,43.39 1.08,98.19 31.61,97.35 30.22,72.13 11.84,100.61 -24.69,38.27 6.38,85.1 47.26,83.72 39.76,-1.34 69.55,-44.63 45.6,-80.73zm422.28 35.51c10.78,12.34 62.98,38.99 79.03,48.23 25.67,14.78 54.16,33.5 80.12,45.3 -2.66,-25.62 -28.46,-76.06 -41.16,-97.79 -21.21,-36.31 -36.2,-47.49 -76.29,-65.82 -10.26,9.9 -34.33,54.43 -41.69,70.07zm-1260.64 156.5c-61.23,15.84 -39.7,106.25 24.23,89.43 56.34,-14.82 34.51,-104.63 -24.23,-89.43zm659.64 1.37c-63.56,21.62 -31.55,105.14 27.1,87.86 54.73,-16.12 31.7,-107.86 -27.1,-87.86zm664.65 29.63c-46.57,15.07 -22.13,84.94 25.42,67.79 41.39,-14.92 22.38,-83.26 -25.42,-67.79zm-406.34 -234.71c-43.97,13.59 -23.86,79.48 22.29,68.96 43.59,-9.93 28.59,-84.69 -22.29,-68.96zm-738.04 -141.1l88.4 1.2c-1.91,-33.43 -8.92,-34.9 -43.6,-35.05 -33.98,-0.15 -43.78,0.87 -44.8,33.86zm-316.72 274.89l67.19 -0.45c1.15,-26.46 -6.19,-36.17 -31.76,-40.05 -34.71,-5.27 -33.31,9.36 -35.43,40.5z"/>
 </g>
</svg>
